<svg id="Layer_1" data-name="Layer 1" xmlns="http://www.w3.org/2000/svg" viewBox="0 0 1585.62 49.35"><defs><style>.cls-1,.cls-3{fill:#42210b;}.cls-1,.cls-2{fill-rule:evenodd;}.cls-2,.cls-4{fill:#603813;}</style></defs><g id="step1"><path class="cls-1" d="M81.24,52.8c.47,0,1.75-.44,3.11,2.23-5.11.87-7.71-3.75-10.22-8-2.25-2.19-4-3.88-6.21-6.22-1.17-1,1.09-3-3.11-3.55-4.81.71-5.69,3.8-7.55,8,.47-.31-3,0-3.11,8a4.63,4.63,0,0,1,2.68,2.65H52.37c-3.56-5.6.7-12.43,1.78-18.65-3.83-.38-5.09-3-8.44-3.55,2.42,4.65-6,7.79-5.33,10.66,1.29,3.63,6.38,9-.89,10.21,2.15-5.26-3.7-6.85-4.89-11.1,1.67-.88,2-2.21,2.67-4-5.44,2.24-11.69,5.37-10.22,12.88,1.07.56,1.81.92,2.22,2.22H24.83c-2.23-3-1.51-7.53-1.77-10.66,7.8-3.14,7.35-8.3,5.33-15.54-5.3,3.32-14.94,6.06-20.88.88,9.14,4.7,16.65-4.65,25.32-5.77C35,19.1,46.83,20.6,51,21.27c5.19,1.29,5.31,1.23,11.1-.44,5.18-.78,7.68,1.94,12-.45.37-1,.9-3.09,1.78-3.55,4.85,0,2.2-2.33,8.88-.45,5,5,3.16,1.88,8.5,3.76-4.62,13.28-10.19-1.85-21.38,14,.38,2,.7,2.11.45,4,.24.54,1.53,1.71,1.77,2.66C75.94,43.72,79.35,51.34,81.24,52.8Z" transform="translate(-7.51 -7)"/><path class="cls-2" d="M64.83,37.26h0c-4.8.72-5.67,3.81-7.53,8,.47-.31-3,0-3.11,7.94a.14.14,0,0,0,0,.09c.92.43,2.47,1.4,2.61,2.63H52.36c-3.59-5.71.58-12,1.76-18.55a.09.09,0,0,0-.07-.11h0c-3.67-.41-5-2.88-8.14-3.51a.1.1,0,0,0-.12.08.13.13,0,0,0,0,.06c2.13,4.55-6.09,7.66-5.41,10.49,1.28,3.6,6.3,8.92-.72,10.18a.09.09,0,0,1-.11-.08s0,0,0,0c2-5.1-3.7-6.72-4.92-10.87a.08.08,0,0,1,0-.11c1.6-.87,1.89-2.18,2.59-3.94a0,0,0,0,0,0,0c-.73-5.54-6.53,0-8.69-10-8.08,3.08-14.46,4.76-20.44.37a.1.1,0,0,1,0-.14.08.08,0,0,1,.08,0c8.8,3.85,16.12-5,24.54-6.12h.07c2.26-4.44,14-2.94,18.24-2.28h0c5.19,1.29,5.32,1.23,11.1-.44,5.17-.78,7.67,1.92,12-.43h0c.36-1,.88-3,1.74-3.51h0c4.8,0,2.19-2.32,8.83-.45h0c5,5,3.17,1.9,8.38,3.71a.09.09,0,0,1,.07.12h0c-4.5,13.06-10.07-1.93-21.21,13.83v.08C69.83,36.18,68.62,36.18,64.83,37.26Z" transform="translate(-7.51 -7)"/></g><g id="step2"><path class="cls-1" d="M117.37,54c-2.69-4.53,1.29-8.06,2.66-12.38,5.52.24,6.57-2.89,8.44-7.11,2.36-1.73,1.63-4.22,1.36-6.71-6.12,1.16-13.11,8.45-20.43,3.55v-.89c7.15,4,13-4.58,19.54-5.77,9.41-6.14,26.89-1.54,31.51-3.07s7,.79,9.77,0c1.62-.72,4.33-3.16,5.77-4a24.13,24.13,0,0,1,2.12-1.31c1.06-.51,1.12-.13,3.21-.47,2.2.53,4.19,1.29,5.33,3.56.09.07,5.39,1.2,6.67,1.77-3.06,8.82-8.61,4.5-14.22,5.78-11.79,4.16-7.69,15.93-4.88,24.43,3.07-.31,3.76,1,4.88,3.11-6.92,1.59-9.27-5.87-11.1-11.15-.49-1-.42-1.3-.89-2.22-1.17-1.9-.1-3.31-3.11-3.55-.62,4.8-4.16,8.93-5.33,12.43-2.65,2.56-8.25,3.39-9.77-.88,8.18,1,9.07-5,8.88-11.55-4.67-1-5.88-4.62-11.1-4.89,1.22,4.73-6.24,12.28-1.78,17.77,1.51,2.75,5.55,2.1,6.22,5.33C144.57,57,140,50.89,137.83,44.66c2-1.79,2.93-7.5-.89-8-4.33,5.45-12.53,6.65-16.88,11.55,1.45.84-2.51,3.88.44,4L121,54Z" transform="translate(-7.51 -7)"/><path class="cls-2" d="M129.83,27.79c-6.12,1.16-13.11,8.45-20.43,3.55v-.89c7.15,4,13-4.58,19.54-5.77,9.41-6.14,26.89-1.54,31.51-3.07s7,.79,9.77,0c1.62-.72,4.33-3.16,5.77-4a24.13,24.13,0,0,1,2.12-1.31c1.06-.51,1.12-.13,3.21-.47,2.2.53,4.19,1.29,5.33,3.56.09.07,5.39,1.2,6.67,1.77-3.06,8.82-8.61,4.5-14.22,5.78-9.69,5.13-4.18,7.17-15.1,10.66-.62,4.8-4.16,8.93-5.33,12.43-2.65,2.56-8.25,3.39-9.77-.88,8.18,1,9.07-5,8.88-11.55-4.67-1-5.88-4.62-11.1-4.89,1.22,4.73-6.24,12.28-1.78,17.77,1.51,2.75,5.55,2.1,6.22,5.33C144.57,57,140,50.89,137.83,44.66c2-1.79,2.93-7.5-.89-8C129.53,33.34,130.1,30.28,129.83,27.79Z" transform="translate(-7.51 -7)"/></g><g id="step3"><path class="cls-1" d="M287.54,21c-1.71-4.66-7.13-3.68-11.1-2.22-3.24,5.35-8.86.24-13.77,1.33-8,4.26-12,.27-21.32.45-5.38,0-12,5.87-15.1,8.44-4,2.67-9.23,6-15.1,3.55V33c14.13,8.81,19.89-12.45,23.1,0-5.2,6.67-8.94,2.52-11.55,14.22-1.61-.3-2.84.56-4.44.89v.88c3.92,3.15,6.66,0,6.66,0s5.63-10.33,13.32-10.66c-3.75,4.33-3.24,7.58-.41,12.89,1.13,1.73,4.15,1.44,4.41,4.44h3.59c-.26-4.12-5.15-2.79-4.88-7.55-3.91-6.45,8-8.61,6.18-15.11,5.15,1.18,7.85,4.73,13.32,4,1.66,2.4,4.27,1.71,4.44,4.89.94,1.14.94,3.77.94,5.77-1.4.27-.79-.24-1.33.89,4.12,2.11,2.33,5.39,9.33,5.33a1.47,1.47,0,0,0,0-2.09,1.39,1.39,0,0,0-.27-.21c-12.23-3.81,9.57-6.52-2.79-13.39-5.07-4,4.45-9.88,9.3-11,7.78-.11,11.37,2.2,13.33-4.88C291.53,20.8,289.72,20.86,287.54,21ZM270,41.27a5.15,5.15,0,0,1,1.09,2c-1.08,1.39-2,1.77-2.24,1.7-1-.31-1.3-4.57-.48-4.89C268.9,39.84,270,41.19,270,41.27Z" transform="translate(-7.51 -7)"/><path class="cls-2" d="M287.54,21c-1.71-4.66-7.13-3.68-11.1-2.22-3.24,5.35-8.86.24-13.77,1.33-8,4.26-12,.27-21.32.45-5.38,0-12,5.87-15.1,8.44-4,2.67-9.23,6-15.1,3.55V33c14.13,8.81,19.89-12.45,23.1,0,1.38,5.82,4.23,3.62,4,5.33-3.76,4.33-3.25,7.58-.42,12.89,1.13,1.73,4.15,1.44,4.41,4.44h3.59c-.26-4.12-5.15-2.79-4.88-7.55-3.91-6.45,8-8.61,6.18-15.11,5.15,1.18,7.85,4.73,13.32,4,.59.85,1.29,2.16,5.58,2.57a6.87,6.87,0,0,1,4,1.75,5.15,5.15,0,0,1,1.09,2,44.6,44.6,0,0,1-5.29,4.34h-.06c-.1,0-.81.09-.83.09-.22,0-.1.08-.44.79a7.29,7.29,0,0,1,1.21.77,7.46,7.46,0,0,1,1.16-.1h.6c.65-.38.93.13,2.31-.75,1.08-2.59,9.85-5.38,1-10.32-5.07-4,4.45-9.88,9.3-11,7.78-.11,11.37,2.2,13.33-4.88C291.53,20.8,289.72,20.86,287.54,21Z" transform="translate(-7.51 -7)"/></g><g id="step4"><path class="cls-1" d="M361.11,53.61c-.46-3.82-3-2.89-3.11-7.1,1-1.28,2-7.73,2.22-9.78-6.33-.07-8.44-3.67-12.88-4.44-3.41,10.63-19.7,11.91-7.1,23.54h-5.78c-.12-3-1.94-3.27-2.66-5.33-.47-2.59.58-4.63-.89-6.21h-.45c-.61,3.55-2.33,6.41-6.21,6.66l-.42-.85c5-1.72,4.54-9.63,5.33-13.77,2.5,2,7,1.44,7.55-2.66-1.29-1.41-2.14-4.16-2.22-6.67-7.66,1.38-9.16,9.61-18.66,9.33l-.45-.89c7.46-.14,9.7-8.35,15.55-11.1a34.14,34.14,0,0,0,11.55-4c7.18,0,15,2.46,20.87-.89,4.35-.48,7.64,2.3,12,0,2.39-4.77,10.09-4.84,13.3-.84.51,3.71,5.31-.34,5.64,4.42-8,5.85-3.54,2.8-13.19,2.69-3,2.16-5.92,3-8,6.22-1.83.8-3.67,1.19-3.11,3.55,11.43,5.42,7.52,6.33,10.66,15.1-4.48.8-5.75-3-4.88-7.1a33.4,33.4,0,0,0-11.55-4.44c-.59,1.77-2.37,5.33-2.67,5.33-1,1.22.46,5.62.89,6.66,1.8.16,2,.9,3.11,2.22C364.58,54.07,363.31,53.61,361.11,53.61Z" transform="translate(-7.51 -7)"/><path class="cls-2" d="M360.13,36.72c-6.3-.11-8.44-3.68-12.88-4.44-3.42,10.62-19.7,11.9-7.11,23.54h-5.77c-.12-3-1.94-3.28-2.66-5.33-.47-2.6-2-4.77-1-8,6.47-5.38,5.36-4.74,5.88-8.84A11.17,11.17,0,0,1,334.37,27c-7.66,1.37-9.13,9.65-18.65,9.32l-.45-.89c7.46-.13,9.21-9.84,15.55-11.1,4.59-.92,7.28-3.84,11.54-4,7.16-.26,13.84,1.93,20.88-.89,4.07-1.62,7.64,2.3,12,0,2.42-4.77,13.08-6,13.33-.88.16,3.35,8.37-.28,6.21,4-3.46,6.86-6.44,3.26-13.41,3.45-2,.06-5.57,5.58-7.84,6.34-1.9.64-4.19.73-3.62,3.09,11.43,5.42,7.52,6.34,10.66,15.11-4.48.79-5.75-3-4.88-7.11-3.59-2.37-7.64-3-11.55-4.44C361.93,38.16,360.77,40,360.13,36.72Z" transform="translate(-7.51 -7)"/></g><g id="step5"><path class="cls-1" d="M484.16,55.37c-8.75.41-3.76-.86-8.88-4-1.92-5.21-6.21-8.94-8.88-13.76-4.1-1.09-7,4.5-8.44,6.66-4.13,6.34,1.77,9.34,1.77,9.34l-4.9.43a.68.68,0,0,0-.44-.45c-7.39-13.79,13.86-14-8-20.43A6.43,6.43,0,0,1,442,38.1c-4.19.47-1,6.12-1.15,10.9,0,1.49-4.23,2.82-4.23,2.82,6.26-7.21-6.79-15.78-7.09-1.78.43,3,3.62,2.6,4.44,5.78H428.2c-5.64-12.63-4.86-10.71,3.11-20-.24-22-10.54-2.79-19.54,1.78v-.45c5.64-3,5.53-11.83,12.88-14.21,5.08-1.7,9.59-3.23,15.54-3.56s14.46,2.58,21.32.89,9.11,1,14.21-1.33c.69-2.27.19-4.22,3.11-4.44,2,1.38,3.12-1.29,5.78-.44a9.6,9.6,0,0,1,5.33,4c7.39.13,5,3.08,1.33,6.66-2.86,1.86-6.13-.71-10.22,0-3,2.66-5.31,6.47-8.43,8.43.12,5.23,4.9,11.23,5.77,16.88C480,52.44,483.53,51.73,484.16,55.37Z" transform="translate(-7.51 -7)"/><path class="cls-2" d="M484.16,55.37c-8.75.41-3.76-.86-8.88-4-1.92-5.21-6.21-8.94-8.88-13.76-4.1-1.09-5.39,4-20-4.45-2.37-.53-6.19-1.86-6.33-.8-1.5,11.39-7,6.82-10.55,17.68-.92,2.85,3.62,2.6,4.44,5.78H428.2c-5.64-12.63-4.86-10.71,3.11-20-.24-22-10.54-2.79-19.54,1.78v-.45c5.64-3,5.53-11.83,12.88-14.21,5.08-1.7,9.59-3.23,15.54-3.56s14.46,2.58,21.32.89,9.11,1,14.21-1.33c.69-2.27.19-4.22,3.11-4.44,2,1.38,3.12-1.29,5.78-.44a9.6,9.6,0,0,1,5.33,4c7.39.13,5,3.08,1.33,6.66-2.86,1.86-6.13-.71-10.22,0-3,2.66-5.31,6.47-8.43,8.43.12,5.23,4.9,11.23,5.77,16.88C480,52.44,483.53,51.73,484.16,55.37Z" transform="translate(-7.51 -7)"/></g><g id="step6"><path class="cls-1" d="M557.51,38.51c-4.68-.46-6.68-3.9-10.68-4.9-1.88,8.12-5.9,7.69-2.22,16.43.12,0,2.73,2.25,3.89,2.26a1,1,0,0,1,1,.53A9,9,0,0,1,550,54a55.72,55.72,0,0,0-5.78,0c-.23-1.26-1.06-1.79-1.6-3.09-.4-.57-2.57-5-4.17-6.24,1-2.55,1.6-5.88,0-8-6.43,4.8-18.3,3.9-16.9,16,1.85.37,2.85,1.09,3.11,3.11h-5.81c-.39-1.32,0-4.9-1.78-5.33,0-2.68,3.68-7.76,3.55-10.66,4.94-2.7,9.31-5.21,9.33-12.43a35.79,35.79,0,0,0-19.1,7.1c0-4.13,6.83-7.81,11.11-9.77a68.65,68.65,0,0,1,17.26-4.85c3.29-.45,8.4,1.48,10.29,1.7,4,.46,8.11,0,13.31,0s9,.92,13.77-4.44c2.64-3,6.61-1.63,10.66,1.33.06,3.12,6.34.87,7.1,4-6.7,7-4.91,5-13.77,4.44-6.33,4.52-10.11,5.79-10.69,15.7s5.21,7.55,7,13.25h-2.8c-7.38-1.54-8.69-9.49-9.9-16.95-4.23,2.19-5,9.38-9.77,10.66-7.8,2.53-11.08-4.22,0-1.78Z" transform="translate(-7.51 -7)"/><path class="cls-2" d="M555.52,38.38c-3.54-1.23-4.69-3.77-8.69-4.77-3.18-.11-2.84-1.54-8.44,3.1-6.15,5.11-18.28,3.9-16.88,16,1.85.37,2.85,1.09,3.11,3.11h-5.79c-.39-1.32,0-4.9-1.78-5.33,0-2.68,3.68-7.76,3.55-10.66,4.94-2.7,9.31-5.21,9.33-12.43a35.8,35.8,0,0,0-19.1,7.11c0-4.13,6.83-7.81,11.11-9.77a68.65,68.65,0,0,1,17.26-4.85c3.29-.45,8.4,1.48,10.29,1.7,4,.46,8.11,0,13.31,0s9,.92,13.77-4.44c2.64-3,6.61-1.63,10.66,1.33.06,3.12,6.34.87,7.1,4-6.7,7-4.91,5-13.77,4.44-6.33,4.52-10.11,5.79-10.69,15.7s5.21,7.55,7,13.25h-2.8c-7.38-1.54-8.69-9.49-9.9-16.95C561.39,39.93,559.41,39.72,555.52,38.38Z" transform="translate(-7.51 -7)"/></g><g id="step7"><path class="cls-1" d="M689.33,21.46c-2.79-.55-1.91-1.07-3-2.41a9.18,9.18,0,0,0-12.5,3.11c-4.9,0-6-1.87-9.32-1.78-6.81.23-10.49,2.58-14.68,2.67-5.85.12-11.49-2.15-16,.89-8.75-.39-20.61,2.1-23.5,10.67,5.77-3.67,9.56-7.78,19.54-7.55-.4,3.68,1.74,6.35.45,9.33-2.27,0-5.07.13-6.67-.44-3.94,5-4.24,12-12,12.43,11.21,7.72,8.57-10,20-7.1l2.66,9.33a8,8,0,0,1,3.11,3.11,38.34,38.34,0,0,0,4.41-.47c-2.66-2.41-6.65-4.61-5.77-9.33,4.77-3,7.89-2.46,9.77-9.31,5,.74,7.83,3.66,14.21,3.56-.76,3.45,3.68,10.63-.44,11.55,1.22,2.34,4.82,3.7,4.89,6.21h6.66c-1.42-2.28-6.07-4.88-6.22-4.88,1-3.26,5.78-3,5.77-6.66-1.19-.77-4.08-4.63-4.44-6.22-.15,0-.15-.45,0-.45.67-1.86,2.55-1.63,4-2.66,3.14-2.24,5.41-5.82,9.77-7.11,3.25-1,6.09,2.4,8,1.33C691.66,27.25,695.13,21.39,689.33,21.46ZM667,44.22c-.55,2.83-3.1,5.08-2.93.07C662.77,39.45,666.15,41.54,667,44.22Z" transform="translate(-7.51 -7)"/><path class="cls-2" d="M689.33,21.46c-2.79-.55-1.91-1.07-3-2.41a9.18,9.18,0,0,0-12.5,3.11c-4.9,0-6-1.87-9.32-1.78-6.81.23-10.49,2.58-14.68,2.67-5.85.12-11.49-2.15-16,.89-8.75-.39-20.61,2.1-23.5,10.67,5.77-3.67,9.56-7.78,19.54-7.55-.4,3.68,1.74,6.35.45,9.33-2.27,0-5.07.13-6.67-.44-3.94,5-4.24,12-12,12.43,11.21,7.72,8.57-10,20-7.1,4.65.13,9.55.15,11.47-6.72,5,.74,10.57,3.71,17,3.61-.81,3.44,1.47,10.35,1.6,13.44,1.22,2.35,2.73,1.75,2.8,4.26h6.66C669.76,53.59,665.11,51,665,51c-.17-8.31-.51-10.49.1-11.85.89-.61,1.08-1.48,1.23-1.48.67-1.86,2.55-1.63,4-2.66,3.14-2.24,5.41-5.82,9.77-7.11,3.25-1,6.09,2.4,8,1.33C691.66,27.25,695.13,21.39,689.33,21.46Z" transform="translate(-7.51 -7)"/></g><g id="step8"><path class="cls-1" d="M758.18,55.91a21.28,21.28,0,0,1-3-6.24c-.62-2,3.5-10.9.48-12.43-17.81-7.7-5.73-1.18-20.88,3.73-2-.58-2.93,6.08-2.22,8.88.79,2.49,5.1,5-.45,4.44-3.26-5.09-2.3-7.63-2.22-13.32H729c-1.87,3.29-4.6,11.22-9.33,8,7.51-5.7,5.06-15.08,8.17-14,1.28.32,4.82,1,4.59-1.41-1.77-9.37-6.43-4.11-12.32-2.33-2.47,2.38-8.09,3.38-11,2.19,8.29-.75,12.64-7.57,20-9.77,8.12-1.31,8.94-6,18.65-2.22,9,1.48,16.77-3.6,24.65.41a1.43,1.43,0,0,0,1.09-.4c2.84-3.32,6.07-5.2,10.68-3.57,2.48,1.65,2.48,4.61,6.17,4.62,3.07,1.78-.16,6.1-3.24,6.44-2.47-1-5.29-3.16-8.2-1.2-1.7,3-10.74,6.17-8.45,10.25,7,8.74,4.81,1.92,6.61,13.21-1.73.56-3.31-2-4-2.67,0-.06.19-2.45.15-4.08a1.44,1.44,0,0,0-1.1-1.36c-2.44-.58-6.7-3.32-8.38-4.77-.5.44,0,.16-.89.44-.47,3.54-5.47,10.54-2.66,13.77,1.65.88,2.43,2.52,2.19,3.39Z" transform="translate(-7.51 -7)"/><path class="cls-2" d="M758.18,55.91a21.28,21.28,0,0,1-3-6.24c-.62-2,3.5-10.9.48-12.43-6.45-2.79-12.5-3.62-13.61-3.36-2,.46-1.23,4.14-6.23,6.18a15,15,0,0,1-5.93.91H729c-1.87,3.29-4.6,11.22-9.33,8,7.51-5.7,5.06-15.08,8.17-14,1.28.32,4.82,1,4.59-1.41-1.77-9.37-6.43-4.11-12.32-2.33-2.47,2.38-8.09,3.38-11,2.19,8.29-.75,12.64-7.57,20-9.77,8.12-1.31,8.94-6,18.65-2.22,9,1.48,16.77-3.6,24.65.41a1.43,1.43,0,0,0,1.09-.4c2.84-3.32,6.07-5.2,10.68-3.57,2.48,1.65,2.48,4.61,6.17,4.62,3.07,1.78-.16,6.1-3.24,6.44-2.47-1-7.09-2.5-8.2-1.2-5,5.78-12.38,10.43-16,11-.47,3.54-5.47,10.54-2.66,13.77,1.65.88,2.43,2.52,2.19,3.39Z" transform="translate(-7.51 -7)"/></g><g id="run1"><path class="cls-1" d="M894.83,23.84c-.4-1.15-2.05-1.51-4.59-1.37-2,.12-2.8-3.26-4.88-3.55-3.08-.47-1.29,1.49-4.44.89-1.61-2.42-6-.32-7.55-.89.14,1.84,1.87,2.45,1.77,4-5.35,1.26-5.61-.69-11.1-1.78-3.44,0-4.39.18-6.22-.44-9.15-9.26-20.09-4.83-26.61,3.11-8.2,2.8-12.49-3.36-18.62-7.94,0,.14,3.23,3.94,3.08,3.94,2.1,4.37,10.42,9.66,16,6.22,1,1,.49,2,2.54,3.26s3.69,1.88,4.12,3.84a9.62,9.62,0,0,1-6.66-.88c.7,4.61,3.54,13,1.33,16.87l1.33.45c5-3.61.45-7.45,2.67-12.88,6.06-1,8.37,3.23,9.32,10.21,6.29-1.92-1-8.91-1.33-11.1,2.31-.12,7.57.07,6.66-4,7.18,1.31,3.34,10.91,3.1,16.43A30.64,30.64,0,0,0,847.2,50a3.9,3.9,0,0,0,4,1.78c0,2-.27,2.51.89,4.44,2.19,0,3.47.42,4.44-.44-2-1.37-2.37-2.23-2.22-2.23.13-4,1.52-2.05,2.66-4,1.46-4.43,5.59-7.88,8.89-11.11,6-1.52,14.69-12.51,23.89-9.23C892.6,30.24,895.74,26.38,894.83,23.84Z" transform="translate(-7.51 -7)"/><path class="cls-2" d="M894.83,23.84c-.4-1.15-2.05-1.51-4.59-1.37-2,.12-2.8-3.26-4.88-3.55-3.08-.47-1.29,1.49-4.44.89-1.61-2.42-6-.32-7.55-.89.14,1.84,1.87,2.45,1.77,4-5.35,1.26-5.82-1-11.1-1.78-3.41-.51-4.39.18-6.22-.44-9.15-9.26-20.09-4.83-26.61,3.11-8.2,2.8-12.49-3.36-18.62-7.94,0,.14,3.23,3.94,3.08,3.94,2.1,4.37,10.42,9.66,16,6.22,1,1,.49,2,2.54,3.26s3.69,1.88,4.12,3.84a9.62,9.62,0,0,1-6.66-.88c.7,4.61,3.54,13,1.33,16.87l1.33.45c5-3.61.45-7.45,2.67-12.88,6.06-1,8.37,1.3,8-.89,2.31-.12,7.57.07,6.66-4,7.17,1.31,3.33,10.91,3.09,16.43A30.64,30.64,0,0,0,847.2,50c1,1.55,2.34,1.78,4,1.78s4.63-.28,5.77-2.18c1.46-4.43,4.5-11.75,5.31-11.28,6.45,3.76,18.27-12.34,27.47-9.06C892.6,30.24,895.74,26.38,894.83,23.84Z" transform="translate(-7.51 -7)"/></g><g id="run2"><path class="cls-1" d="M993.42,16.68c-2.22,0-2.76.39-5,.39l-.89-1.77A4.17,4.17,0,0,0,984.42,14c-3.85,0-2.55.54-5,1.49-2,.24-5.06.52-6.1,1.1-.17.09,2,1,1.8,1a19.19,19.19,0,0,1-4.77,1.62c-2.52.5-3.75.23-6.4.1a17,17,0,0,0-5.71,1.34c-3.88-4.39-13.31-10.06-20.88-5.31a20.89,20.89,0,0,0-4.88,4c-.86,1.19-.76,2.45-1.92,3.29a42.13,42.13,0,0,1-5.68,3.78c-5,2.48-8.15,3-15.5,2.26,3.57,3.66,12.8,2.31,16.74.21,1.22-.64,3.63-2.62,5-3.32a6.1,6.1,0,0,0,1.71,2.75c1.47.93,3.52.39,5.91.35-.48,1.63-4.35,4.51-5.77,5.33v.45a26.47,26.47,0,0,0,11.55,3.1c.08,1.28-.84,2.24,1.13,2.27,0-.14,2,2,4.23,2.31,0,.59-2.14.8-2.69,1.12-3.21,1-5.54.25-7.56,1,2.17,3,6,2.77,10.22.89.38-.18,1.39-1.23,1.77-1.34,1.83-.5,3.38,1.42,4.45,1.78,2.09.71,3.77-.82,4.88-1.33a.68.68,0,0,1,.45-.45c-1.71-1.42-5.41-.8-7.11-2.22-1.46-.76,5.54-5.67,5.79-5.67a30.7,30.7,0,0,0,2.13,3.58c.94,1.47,3.28,3.84,3.13,3.84-.59,3-4,2.81-6,3.87-.3,0-1,.28-.88.81.2,1.09.68.45,1.11,1.09,3.14,0,5.95-.71,7.55-2.22.89-.84,1.38-1,1.78-1.77-.93-3.26-2.87-6.59-3.56-9.78,1.87-.83,2.24-2.17,4-3.4a42.9,42.9,0,0,0,4.84-4.09c1.22-1.39,5.71-3,7.58-3.61s5.71-.88,7.35.07c2,1.3,4.37-1,5-3.58A3.92,3.92,0,0,0,993.42,16.68ZM940.91,33.51c-.27-.57,2.82-2.22,3.11-2.22a21.7,21.7,0,0,1,.89,3.55A12.83,12.83,0,0,1,940.91,33.51Zm10.22,6.22c-.3,0-1.35-.8-1.64-.8-.76-.79-1-.71-1-2.31.44-2.22.88-4.45,1.33-6.67,1.87.77,2.74,2.94,4.44,4C953.38,35.49,951.13,39.61,951.13,39.73Z" transform="translate(-7.51 -7)"/><path class="cls-2" d="M993.42,16.68a3.92,3.92,0,0,1,.73,4c-.65,2.61-3,4.88-5,3.58-1.64-1-5.39-.77-7.35-.07-5.54,2-9.65,6-11.36,7.36s-3.21,2.91-5.08,3.74c.69,3.19,2.63,6.52,3.56,9.78-.4.8-.89.93-1.78,1.77-1.6,1.51-4.41,2.18-7.55,2.22-.43-.64-.91,0-1.11-1.09-.14-.53.58-.81.88-.81,2-1.06,5.41-.91,6-3.87.15,0-2.19-2.37-3.13-3.84a30.7,30.7,0,0,1-2.13-3.58c-.3,0-9.26-2.8-13.63-5.91-1.54,2.55-6.47,2.55-5.1,3.63-.14,0,3.93-.55,7.61,3.4a3.74,3.74,0,0,1,1.38,2.54c-1.24.75-1.87.21-3-.46-1.1-.47-1-1-3.49-1.57-4.5,0-7.84-1.58-10.88-3.09V34c1.42-.82,5.29-3.7,5.77-5.33-2.39,0-4.44.58-5.91-.35a6.14,6.14,0,0,1-1.64-2.76c-1.39.7-3.8,2.68-5,3.32-3.94,2.1-13.17,3.45-16.74-.21,7.35.75,10.5.22,15.5-2.26a42,42,0,0,0,5.59-3.76c1.16-.84,1.06-2.1,1.92-3.29a20.89,20.89,0,0,1,4.88-4c7.57-4.75,17,.92,20.88,5.33A17.11,17.11,0,0,1,964,19.31c2.65.13,3.88.4,6.4-.1a19.14,19.14,0,0,0,4.77-1.6c.2-.07-2-.93-1.8-1,1-.58,4.11-.86,6.1-1.1,2.41-1,1.11-1.47,5-1.49a4.2,4.2,0,0,1,3.11,1.34l.89,1.77C990.66,17.07,991.2,16.68,993.42,16.68Z" transform="translate(-7.51 -7)"/></g><g id="run3"><path class="cls-1" d="M1095.21,17.79c-.38,16-12.24-3.34-23.29,15.32,3,1.36,11.83,4.35,10.21,8.44-2.8,3.24-1.88,5.83-8.44,5.77l-.86-1.33c2.44-.8,5.45-2.76,5.78-5.77-5.08-1.82-9.47-2-14.21-4a25.92,25.92,0,0,1,.43,9.33c-2.46.76-1.78,1.76-5.77,1.77-1.6-1.2-2.73-.26-4-2.22,2.14-1.17,6,.88,7.11-1.78-1.56-1.5-2.62-4.64-3.56-6.66-5-.06-6.67-2.95-11.1-3.55,1.09,2,.25,6.55,0,9.33,2.91,2.09,5.32,5.17,9.32,4.88,0,1,2.48,1.75,2.22,1.78-4.22,5.31-10.08-2.79-15.56-3.11.37-1.26-.08-3.6-.44-5.33a5.23,5.23,0,0,0-1.78-.44c-2.78,8.24-9.19,10.18,4.44,14.65.94,2.64-4.1.84-5.76,1.33.32-.52-.61-.94-1.31-1.61-3-.71-5-3.58-6.25-5.94,4.71-5.18,4-11.66-3.56-13.32-14.54,11-25.59-5-20,0C1038,43,1023.5,13.61,1055.48,21.61c4.74,1,9.29-3.28,12.44-.44,8.42-.3,4.54-4.12,11.1-5.33,2.22,1.88,7.34-4.34,10.22,2.22C1090,17.46,1092.76,17.31,1095.21,17.79Z" transform="translate(-7.51 -7)"/><path class="cls-2" d="M1095.21,17.79c-.38,16-12.24-3.34-23.29,15.32,3,1.36,11.83,4.35,10.21,8.44-2.8,3.24-1.88,5.83-8.44,5.77l-.86-1.33c2.44-.8,5.45-2.76,5.78-5.77-5.08-1.82-9.47-2-14.21-4a19.58,19.58,0,0,1-6.05.58c-5-.07-6.4-3.09-10.83-3.69,1.09,2,.25,6.55,0,9.33,2.9,2.09,5.31,5.17,9.31,4.88,0,1,2.48,1.75,2.22,1.78-4.22,5.31-10.08-2.79-15.56-3.11.37-1.26-.08-3.6-.44-5.33a5.23,5.23,0,0,0-1.78-.44c-6.45,0-7.52-2-12.44-4.89-14.54,11-25.59-5-20,0C1038,43,1023.5,13.61,1055.48,21.61c4.74,1,9.29-3.28,12.44-.44,8.42-.3,4.54-4.12,11.1-5.33,2.22,1.88,7.34-4.34,10.22,2.22C1090,17.46,1092.76,17.31,1095.21,17.79Z" transform="translate(-7.51 -7)"/></g><g id="run4"><path class="cls-1" d="M1180.83,36.37c-.6.48-3.09.7-.18,1a7.34,7.34,0,0,1,4.69,2.29c2.39,3.22-3.94,8.42-8.51,7v-.45c2.13-1.31,5.53-3,6-5.14-6.23-1.65-7.81-3.42-10.89-2-1.22.57-1.54-1.06-2.22-1.34-2.49,0-2.74,1-4-1.33-6.74,2.16-13.29.26-19.53-1.74,2.34,4-1.59,10-3.11,13.75,1.87.77,2.41,3.65,4,4.44,2.08-.34,5.17,1,5.33,3.11-2.11-.14-4.77,0-8,0-.54-3.88-4.63-5-6.66-7.55,3.37-1.58,3.36-9.4-2.22-9.32-1,2.21-5.75,3.21-8,4.44-2.65,1.66-4.23,4.61-6.22,5.77a11.64,11.64,0,0,0,.45,6.66c-.94-.21-1.2-.49-1.78,0-2.28-2.27-1.54-3.48-2.66-6.66a11.68,11.68,0,0,0,4.88-7.11c4.57-2.33,9.87-6.12,8-12-8.62-3.65-14.64,10.89-23.54,5.33,9.82.15,11.28-6.37,18.65-8.44,5.91.83,6.25-3.73,15.55-4,4.18-.11,6.27,1.94,10.21.89,3.21-.91,8.71-3.11,11.55-3.55s10.83.91,13.33-3.11c-1.58.06-4,.26-4.89-.44.3,0,3.59-4.08,9.18-2.59.59-1.62,5.81-1.35,7.9-.2,1.74,2.41.15,2.86,8.24,3.69-1.42,4.29-1.77,6.71-6.27,6.22-5.77-.64-12.89-2.8-15.5,8.43,9.53,1.74,13.42-3.6,21.77,6.67C1189.93,41.11,1187.69,32.84,1180.83,36.37Z" transform="translate(-7.51 -7)"/><path class="cls-2" d="M1183.91,35.9c-.6.48-8.88,1.68-12,3.14-1.22.57-1.58-.69-2.22-1.34-1.76-1.75-1.11-2.46-4-1.33-6.55,2.59-13.26.24-19.5-1.76,2.34,4-1.59,10-3.11,13.75,1.87.77,2.41,3.65,4,4.44,2.08-.34,5.17,1,5.33,3.11-2.11-.14-4.77,0-8,0-.54-3.88-4.63-5-6.66-7.55,3.37-1.58,3.36-9.4-2.22-9.32-1,2.21-3.46-3-5.33-8.89-8.62-3.65-14.64,10.89-23.54,5.33,9.82.15,11.28-6.37,18.65-8.44,5.91.83,6.25-3.73,15.55-4,4.18-.11,6.27,1.94,10.21.89,3.21-.91,8.71-3.11,11.55-3.55s10.83.91,13.33-3.11c-1.58.06-4,.26-4.89-.44.3,0,3.59-4.08,9.18-2.59.59-1.63,5.81-1.36,7.9-.21,1.74,2.41.15,2.86,8.24,3.69-1.42,4.29-1.77,6.71-6.27,6.22-5.77-.64-12.89-2.8-15.5,8.43,9.53,1.74,13.42-3.6,21.77,6.67C1189.93,41.11,1188.19,35.28,1183.91,35.9Z" transform="translate(-7.51 -7)"/></g><g id="run5"><path class="cls-1" d="M1289.71,16.83c.26.11.26.87,0,1.33,2.3.21,6.17,1.79,7.09,2a13.78,13.78,0,0,1-1.76,4.67,4.16,4.16,0,0,1-3.13,1.78c-4.54-2-8.26-2-10.19-.45-.7.55-1.91,1.71-2.67,2.22-1.31.87-3.4,2.22-3.55,2.22s1.93,1.17,8,.88a19.7,19.7,0,0,1,12.43,4.45c-2.83,2.89-5.18-.86-7.1-1.34-1.48.15-7.32.19-7.47.19,0,.29,2.58,1.29,2.58,1.59l6.66,2.24a6.13,6.13,0,0,0,3.11-.44,11.23,11.23,0,0,1,3.55.89c-1.43,2.35-4.43,3.55-8,2.64a4.26,4.26,0,0,0-2.22-.44c-2.86.53-2.68-1.23-4.89-2.22l-9.77-2.23c-1.36-.67-1.34-2.08-3.11-2.66-1.08,1-10.33,3-13.32,1.78-2.17-1-4.4-1.89-6.66-2.67-3.31-.92-6.13,0-8.89,0-1.58,6.07-7.73,11-15.58,11.11-1.76,2.59-3.86,4-4,8.43a4.21,4.21,0,0,1,2.67,3.11h-4c-.34-1.17-1-1.06-1.33-1.77V50.61c-.29-.72-.64-.1-.89-1.77a17.66,17.66,0,0,0,3.11-4.89c.37-.84.35-2.56.88-3.11.45,0,1.34-.59,1.34-.89a5.3,5.3,0,0,0-4.85,2.66c-2.74,2.71-4.07,4.45-9.77,4.44-.77-1-1.93-1.11-2.67-2.22h.45c1.25-1,4-.93,6.22-.89.5-1.61,4.44-5.92,4.44-6.22,1.25-1.11,7.13-1.41,9.33-3.11.14-.1,1.42-5.88,4.44-9.32-7.61-1.7-19.77,2.13-23,2.88a47.33,47.33,0,0,1,7-4.28c3.06-1.32,10.38-3.4,15.13-2.16,4.16,1.09,6.37.61,10.21-.44s6.43,1.8,9.78.89c4.89-.74,10-3.49,14.07-4.05s11.44,4.28,13.44.48l-3-1c-.82-.31-2.75-.58-2.75-.87a25.29,25.29,0,0,1,4.84-1.24c1-.62,4.6,1.16,6.66,1.33.71-1.68,2.54-1.45,3.55-1.33A17.51,17.51,0,0,1,1289.71,16.83Z" transform="translate(-7.51 -7)"/><path class="cls-2" d="M1289.71,16.83c.26.11.26.87,0,1.33,2.3.21,6.17,1.79,7.09,2a13.78,13.78,0,0,1-1.76,4.67,4.16,4.16,0,0,1-3.13,1.78c-4.54-2-8.26-2-10.19-.45-.7.55-1.91,1.71-2.67,2.22-1.31.87-3.4,2.22-3.55,2.22a17.16,17.16,0,0,0,6.06,4.33c2.22.74,6.82,2.92,9,3.66a6.13,6.13,0,0,0,3.11-.44,11.23,11.23,0,0,1,3.55.89c-1.39,2.37-4.39,3.57-8,2.66a4.26,4.26,0,0,0-2.22-.44c-2.86.53-2.68-1.23-4.89-2.22l-9.77-2.23c-1.36-.67-1.34-2.08-3.11-2.66-1.08,1-10.33,3-13.32,1.78-2.17-1-4.4-1.89-6.66-2.67-3.31-.92-6.13,0-8.89,0-1.58,6.07-7.73,11-15.58,11.11-1.76,2.59-3.86,4-4,8.43a4.21,4.21,0,0,1,2.67,3.11h-4c-.34-1.17-1-1.06-1.33-1.77V50.61c-.29-.72-.64-.1-.89-1.77a17.66,17.66,0,0,0,3.11-4.89c.37-.84.35-2.56.88-3.11.45,0,3.63-2.82,6.17-3.69.17,0-.3-8.41,2.72-11.85-7.61-1.7-19.77,2.13-23,2.88a47.33,47.33,0,0,1,7-4.28c3.06-1.32,10.38-3.4,15.13-2.16,4.16,1.09,6.37.61,10.21-.44s6.43,1.8,9.78.89c4.89-.74,10-3.49,14.07-4.05s11.48,4.27,13.48.47l-3-1c-.82-.31-2.75-.58-2.75-.87a25.29,25.29,0,0,1,4.84-1.24c1-.62,4.6,1.16,6.66,1.33.71-1.68,2.54-1.45,3.55-1.33A17.51,17.51,0,0,1,1289.71,16.83Z" transform="translate(-7.51 -7)"/></g><g id="run6"><path class="cls-1" d="M1373.73,34.87c0-2.1.63-2.41,1.78-3.11,3.4-3.08,10-5.31,15.1-1.78,6.29-2.61,9.36-7-.89-8-.45-4.46-5.28-4.08-8.89-3.55-2.18-2.56-3.88-4.55-8-2.66,1.73,2.84,3.93-.49,4.9,4.84-3.15.52-8.14,1.79-10.66-1.33-1.71-2.11-10.53-.55-18.21.45-7.27.94-9.77-1.46-15.1-.89-7.57-5.23-15.93-7.47-26.21-3.52.71,1.45,6-.73,9.84-.06,1.8.35,7.23,1.49,8.92,2.35a39.84,39.84,0,0,1,4.67,2.77c-.6,4.41-3.59,6.11-5.22,9.56-3.55-.13-4.88-1.77-7.11-3.11-3.72,3.66-6.75,9.66-12.43,6.67,1,2.63,1.81,3.4,4.44,4.44-.74,2.31-7.63,5.53-10.66,5.77,6.69,5.18,12.52-3.49,17.77-5.33,3.46-1.23,5,.93,8.44,0,2.3,0,4-1.92,5.77-3.11.43-.1,1.2.75,2.22.45,2.1-.64,8.81-4.36,10.22-5.78,7.92,3,11,8.11,20,6.66-.08,5.33,3.85,9.77,7.11,12.44.44,1.4,1.73,2.15,2.22,3.55,1.35,1,3.21,1.21,4,3.11a65.79,65.79,0,0,0,8.88,0v-.44c-3.8-1.16-10.57-2.65-11.12-7.07a30.67,30.67,0,0,1-4.45-8c6.21.93,11.77,4.42,17.77,4.42,1.93,2.9,7.54,0,8-2.67C1388.74,43.28,1380.49,39.37,1373.73,34.87Zm-56.24.93c-.3-.07-2.56-.23-2-.57,1.17-.72,2.26-2.49,3.63-3,.4-.15,2.34,1.08,2.5,1.35C1322.08,34.37,1320,36.39,1317.49,35.8Z" transform="translate(-7.51 -7)"/><path class="cls-2" d="M1377.73,20.61c-1-5.33-3.17-2-4.9-4.84,4.12-1.89,5.82.1,8,2.66,3.6-.53,8.43-.91,8.88,3.56,10.25,1,7.18,5.38.89,8-5.13-3.53-11.7-1.3-15.1,1.78-1.15.7-3.07,2.85-5.41,5a32.5,32.5,0,0,0,5.41,11.39c.55,4.44,7.3,5.91,11.1,7.11v.44a65.79,65.79,0,0,1-8.88,0c-.79-1.9-2.65-2.06-4-3.11-.49-1.4-1.78-2.15-2.22-3.55-3.25-2.64-7.18-7.08-7.1-12.44-8.93,1.45-12.53-2.63-20-6.66-1.57-.83-2.74-1.34-3.05-1-8.51,8.66-13.29,10-15.6,10-3.6,0-4.52-1.72-8-.49-5.23,1.83-11.06,10.5-17.75,5.32,3-.24,12.58-6.47,13.32-8.78,8.3.68,8.41-1.77,11-4.12,2.28-3.37,6.06-6,6.66-10.43a40.14,40.14,0,0,0-4.67-2.81c-1.69-.9-7.12-2.08-8.92-2.39-3.82-.61-9.13,1.55-9.84.1,10.28-4,18.64-1.71,26.21,3.56,5.33-.57,7.83,1.83,15.1.89,7.68-1,16.5-2.56,18.21-.45C1369.59,22.44,1374.58,21.17,1377.73,20.61Z" transform="translate(-7.51 -7)"/></g><g id="run7"><path class="cls-1" d="M1475,18.61c-1.12,0-1.66,0-2.22-.44a8.94,8.94,0,0,0,2.67-.44c1.19.57,3.35,3.21,4.44,4,1,2.51,3.29.06,6.22,1.34,2,.88,2.55,3.59,4,4.44a13.21,13.21,0,0,1,5.55,2.06c-2,2.53-3.11,4.52-6.48,5.25-3.6-3.43-12.7-1.7-16.39.68-.83.54-1.37,1.63-2.22,2.22.27.86,10,11,11.55,11.55,2.58.89,7.22-1.32,8.44.89-1.08.66-1.27,1.35-2.67,1.78-1.91,1.59-4.23-.24-6.22-.89H1479l-1.33-1.78c-.76-.53-1.46-.36-2.22-.89a75.4,75.4,0,0,0-8.44-5.33l-.45-1.33c-1.53-1.92-3.55-2.18-7.1-2.22-.5.44-7.55,6-8,11.1-1.38,1.66.31,4.16.89,5.33h-4.44v-.88c-.64-.84-.33-5.22-.45-6.67,2-1.31,5.56-8.35,6.22-11.1-4.23-1.73-4.66-4-7.55-6.66a12.18,12.18,0,0,1-6.66,4c-1.77-.17-2.31-1.58-4-1.77-2.47,3.73-5.65,1.46-9.33.89-1.08,1.65-3.15,2.12-4.44,3.55a27.91,27.91,0,0,1-5.77-.45V36c2.17-.81,7-2.64,8.44-4a33.43,33.43,0,0,1-3.57-2.7l-6.66,3.56c-.94.65-1.93,2.26-3.11,2.66-2.3.79-4.2-1-5.77-1.33L1404,31.93c.92-.09,6.13,0,7.1-.45.15-.29,4-3.4,4.44-4a18.84,18.84,0,0,0,3.56-3.11c.89-.56,2.41-1.18,2.66-.89C1423.6,25.41,1424,27,1428,27c1.33-2.24,3.63-4.44,4.44-7.1-5.3-.46-10.81-7.15-12-7.84-4-2.25-7.26-.68-9.28-.6,0-.15,8-4.81,17.77,3.11a19.18,19.18,0,0,0,2.67,1.46c3.38,1.82,6.31.06,10.65,1.2a79.31,79.31,0,0,1,12,4c1.64.72,3.37,2.11,5.33,2.66s3.43-.61,4.44-.88c3.16-.86,11.26,5.18,13.32.88C1475.83,22.94,1475.24,20.79,1475,18.61Z" transform="translate(-7.51 -7)"/><path class="cls-2" d="M1475,18.61c-1.12,0-1.66,0-2.22-.44a8.94,8.94,0,0,0,2.67-.44c1.19.57,3.35,3.21,4.44,4,1,2.51,3.29.06,6.22,1.34,2,.88,2.55,3.59,4,4.44a13.21,13.21,0,0,1,5.55,2.06c-2,2.53-3.11,4.52-6.48,5.25-3.6-3.43-12.7-1.7-16.39.68-.83.54-2.1,3.22-3.94,3.27-1.93,1.07-5.83.77-9.38.73-.5.44-7.55,6-8,11.1-1.38,1.66.31,4.16.89,5.33h-4.45v-.88c-.64-.84-.33-5.22-.45-6.67,2-1.31,5.56-8.35,6.22-11.1-4.23-1.73-4.66-4-7.55-6.66-2.87-1.78-3.4-3-6-2.6-6.73,11.16-10.62,6.84-14,5.71-2.82-1-4.56-3.62-5.33-4.45l-6.66,3.56c-.94.65-1.93,2.26-3.11,2.66-2.3.79-4.2-1-5.77-1.33L1404,31.93c.92-.09,6.13,0,7.1-.45.15-.29,4-3.4,4.44-4a18.84,18.84,0,0,0,3.56-3.11c.89-.56,2.41-1.18,2.66-.89C1423.6,25.41,1424,27,1428,27c1.33-2.24,3.63-4.44,4.44-7.1-5.3-.46-10.81-7.15-12-7.84-4-2.25-7.26-.68-9.28-.6,0-.15,8-4.81,17.77,3.11a19.18,19.18,0,0,0,2.67,1.46c3.38,1.82,6.31.06,10.65,1.2a79.31,79.31,0,0,1,12,4c1.64.72,3.37,2.11,5.33,2.66s3.43-.61,4.44-.88c3.16-.86,11.26,5.18,13.32.88C1475.83,22.94,1475.24,20.79,1475,18.61Z" transform="translate(-7.51 -7)"/></g><g id="run8"><path class="cls-1" d="M1560.26,39.48l-6.22-.87c-4.67,4.66-13.87,14.39-20.87,8.44,6.3-1.39,13.66-2.84,16.43-11.57-2.71-1.24-4.62-4.1-7.11-4.88-1.19,1.76-4.57,6.94-8.43,4.88-2.34,3-3.39,1.25-5.78,1.78-1.06,1.07-.93,2.14-1.78,3.55-1.15,1.68-5.81,3.53-6.67,1.8,2.06-1.25,5-7.55,4.89-7.55-6.39-8.19-4.56,8.17-14.21,7.1-.45-.49-.17,0-.45-.88,4.47-2.81,8.24-11,10.66-16,2.32,1.58,2,4.59,5.77,4.88.28-.85-.41-4.12-.44-6.66-6.76,4.66-18.22-10.54-19-12,6.42,3.23,11,11.93,21.68,8.89,3-2.33,9.46-4.29,12.43-3.55C1550.77,19,1554.6,25,1562,23.05c4.41-1.81,5.94,2.63,11.54.88.19-1.45-1.55-1.94-1.77-3.55.44,0,7.85,1.12,8.88.89.34-.08,1.66-.83,2.67-.44,5.39,2.07,1.41,2.43,4.88,4,2.39,1.08,3.89.44,4.89,2.06-.66,2.19-2.65,5.66-5.33,5.49-9.33-4.64-15.88.83-21.77,5.78-1.06,1.3-1.69,6.16-2.22,8-.79,2.75,2.51,7.19,3.11,7.55,1.91,1.11,2.81-.1,3.56,2.2h-6.22c-1.13-1.54-1.44-4.1-3.56-4.44C1560.7,50.88,1560.29,43,1560.26,39.48Z" transform="translate(-7.51 -7)"/><path class="cls-2" d="M1560.26,39.48l-6.22-.87c-4.67,4.66-13.87,14.39-20.87,8.44,6.3-1.39,13.66-2.84,16.43-11.57-2.71-1.24-7-5.67-9.47-6.46-1.2,1.76-6.09,8-8.53,8.23-4.37.38-5.19-.74-6.87-2.21-6.39-8.19-4.56,8.17-14.21,7.1-.45-.49-.17,0-.45-.88,4.47-2.81,8.24-11,10.66-16,2.32,1.58,2,4.59,5.77,4.88.28-.85-.41-4.12-.44-6.66-6.77,4.68-18.23-10.52-19-12,6.42,3.23,11,11.93,21.68,8.89,3-2.33,9.46-4.29,12.43-3.55C1550.77,19,1554.6,25,1562,23.05c4.41-1.81,5.94,2.63,11.54.88.19-1.45-1.55-1.94-1.77-3.55.44,0,7.85,1.12,8.88.89.34-.08,1.66-.83,2.67-.44,5.39,2.07,1.41,2.43,4.88,4,2.39,1.08,3.89.44,4.89,2.06-.66,2.19-2.65,5.66-5.33,5.49-9.33-4.64-15.88.83-21.77,5.78C1565,39.45,1563,39.47,1560.26,39.48Z" transform="translate(-7.51 -7)"/></g><path class="cls-3" d="M28.83,42.73s1.19,4.39,4.39,6.75a22.92,22.92,0,0,0,6.13,3.28s-3.27-5.78,0-11A58.8,58.8,0,0,1,49.3,30.47c1.41-1.26,1.34-2.65,2.24-3.56s2.65-1.81,2.58-3.55a11.11,11.11,0,0,0-.56-3.07,1.79,1.79,0,0,1-1.81-.83c-.56-1.05-.63-3.55-1.81-3.62s-1.31-3.56-.62-4.11,1.15-4,2.85-3.63c1.88.42,1.88-1.1,4.39-1.1s3.34.69,4.6.62,1.32-.14,2.29.76,2.86,1.33,3.21,2.3.28,1.6-.84,2.93a16.17,16.17,0,0,1-3.06,2.57,8.4,8.4,0,0,1,.83,2.44c.21,1.33.35,2.93.35,2.93s2.37,1,2.51,5,.86,3.86.39,6.14a9.35,9.35,0,0,1-1.09,3.2s.42,5.64.56,9.19S65.88,50.46,67,51s1.78.14,2.51,1.11,1,1.88,0,2.23a4.58,4.58,0,0,1-3.27-.63c-.56-.41-2-1.39-2.51-4.52a76.32,76.32,0,0,1-.55-8.16s-.77,1.05-1.82,2.44S59.9,45,59.9,45s-1,5.57.28,6.89,2.62.93,2.64,2,.22,1.2-.69,1.69a3.26,3.26,0,0,1-2.93,0,4.53,4.53,0,0,1-2.09-3.76c-.13-2.44-.48-5.5-.48-5.5a6.52,6.52,0,0,1-2.93,4.18c-.23.14,2,.09,3.37.63,1,.39.6,1.3.46,1.88-.26,1.09-8.21.83-8.21.83s3.55-2.16,4-.83.35,2-1.18,2.09-7.8.07-7.8.07-3.53.27-4.24-.28l-.71-.56s-6.83,1.18-7.87-1A11.68,11.68,0,0,1,28.83,42.73Z" transform="translate(-7.51 -7)"/><path class="cls-4" d="M28.83,42.73s1.19,4.39,4.39,6.75a22.92,22.92,0,0,0,6.13,3.28s-3.27-5.78,0-11A58.8,58.8,0,0,1,49.3,30.47c1.41-1.26,1.34-2.65,2.24-3.56s2.65-1.81,2.58-3.55a11.11,11.11,0,0,0-.56-3.07,1.79,1.79,0,0,1-1.81-.83c-.56-1.05-1.6-1.95-1.25-3.21s-.14-2.09.55-2.64,1.68-.42,2.16-2.09-1-2.44-.14-2.93S54.05,7,56.56,7s3.34.69,4.6.62,1.32-.14,2.29.76,2.86,1.33,3.21,2.3.28,1.6-.84,2.93a16.17,16.17,0,0,1-3.06,2.57,8.4,8.4,0,0,1,.83,2.44c.21,1.33.35,2.93.35,2.93A6.88,6.88,0,0,1,67,27.19c.14,4,.31,3.23-.16,5.51a9.35,9.35,0,0,1-1.09,3.2s-3.34,6.2-4.39,7.59S59.9,45,59.9,45s-1,5.57.28,6.89,2.62.93,2.64,2,.22,1.2-.69,1.69a3.26,3.26,0,0,1-2.93,0,4.53,4.53,0,0,1-2.09-3.76c-.13-2.44-.48-5.5-.48-5.5a12.74,12.74,0,0,0-.91-4.53c-.3-.67-3.45,3-3.27,3.62a6.51,6.51,0,0,1-2.16,7s2.58-.77,3,.56.35,2-1.18,2.09-7.8.07-7.8.07-3.53.27-4.24-.28l-.71-.56s-6.83,1.18-7.87-1A11.68,11.68,0,0,1,28.83,42.73Z" transform="translate(-7.51 -7)"/></svg>