<?xml version="1.0" encoding="utf-8"?>
<!-- Generator: Adobe Illustrator 25.0.0, SVG Export Plug-In . SVG Version: 6.00 Build 0)  -->
<svg version="1.1" id="hory" xmlns="http://www.w3.org/2000/svg" xmlns:xlink="http://www.w3.org/1999/xlink" x="0px" y="0px"
	 viewBox="0 0 2000 70" style="enable-background:new 0 0 2000 70;" xml:space="preserve">
<style type="text/css">
	.st0{fill:#56A4C1;}
	.st1{fill:#6FD1EF;}
</style>
<polygon class="st0" points="-1,72.2 2001,72.2 2001,9.7 1901.3,32 1813.8,13.7 1657.8,38.7 1576.6,0 1482.3,33 1413.7,0 
	1367.5,30.2 1291.2,20.2 1247.3,39.2 1167.6,10.1 1097.9,36.7 1049.6,0 1010.3,43.8 938.4,19.1 858.6,49.4 802.4,21.4 757.5,40 
	683.3,16.9 635.1,38.5 531.6,0 480,36.7 426,24.7 358.6,32 300.2,18 212.5,44.9 130.5,19.1 64.2,36.7 -1,10.1 "/>
<polygon class="st1" points="1293.2,21.4 1265.2,35.4 1308.6,42.5 "/>
<polygon class="st1" points="1133.6,59.3 1167.6,10.1 1111.2,43 "/>
<polygon class="st1" points="1059.6,28.2 1050.6,0 1007.4,59.3 "/>
<polygon class="st1" points="1709.4,63.5 1820.4,18.9 1664.4,43.8 "/>
<polygon class="st1" points="1901.3,32 1987,36.7 1960.5,18.7 "/>
<polygon class="st1" points="912.2,55.3 939.3,21.2 885.1,58.2 "/>
<polygon class="st1" points="1587.1,32.6 1576.9,4.8 1503.7,30.4 "/>
<polygon class="st1" points="161.4,36.7 130.6,27 69.3,43.3 "/>
<polygon class="st1" points="223.8,47.9 301.4,24.4 232.5,54.8 "/>
<polygon class="st1" points="383.4,45.9 441.8,36.1 425.1,31 "/>
<polygon class="st1" points="520.9,51.2 529.4,10.5 488.3,39.7 "/>
<polygon class="st1" points="666,50.1 688.2,20.1 643.4,40.2 "/>
<polygon class="st1" points="825.6,36.5 803.8,24.4 734.4,54.7 "/>
</svg>
