<svg id="more" xmlns="http://www.w3.org/2000/svg" viewBox="0 0 1710.83 27.93"><defs><style>.cls-1{fill:#fff;opacity:0.35;}</style></defs><polygon class="cls-1" points="17.57 12.62 426.17 10.74 558.37 12.62 247.7 12.62 17.57 12.62"/><polygon class="cls-1" points="428.38 20.66 731.11 20.66 505.05 22.86 428.38 20.66"/><polygon class="cls-1" points="834.67 7.39 973.48 6.12 886.23 9.37 834.67 7.39"/><polygon class="cls-1" points="958.95 13.06 1103.72 15.81 1031.22 17.02 958.95 13.06"/><polygon class="cls-1" points="830.13 25.59 916.53 26.9 809.56 21.43 830.13 25.59"/><polygon class="cls-1" points="1361.82 15.76 1710.83 15.17 1453.04 18.87 1274.57 17.77 1361.82 15.76"/><polygon class="cls-1" points="1320.84 6.12 1519.14 6.12 1673.81 6.12 1497.32 7.77 1240.53 6.94 1320.84 6.12"/><polygon class="cls-1" points="1221.69 26.28 1419.99 26.28 1574.66 26.28 1398.17 27.93 1141.38 27.1 1221.69 26.28"/><polygon class="cls-1" points="1007.72 3.2 1093.98 0 986.9 1.6 1007.72 3.2"/><polygon class="cls-1" points="0 21.41 138.81 20.13 51.56 23.39 0 21.41"/></svg>